<?xml version="1.0" encoding="UTF-8"?>
<svg width="800" height="600" viewBox="0 0 800 600" fill="none" xmlns="http://www.w3.org/2000/svg">
  <!-- Background gradient -->
  <defs>
    <linearGradient id="grad1" x1="0%" y1="0%" x2="100%" y2="100%">
      <stop offset="0%" style="stop-color:#4F46E5;stop-opacity:0.1" />
      <stop offset="100%" style="stop-color:#7C3AED;stop-opacity:0.1" />
    </linearGradient>
  </defs>
  
  <!-- Background -->
  <rect width="800" height="600" fill="url(#grad1)" />
  
  <!-- Bitcoin symbol -->
  <g transform="translate(400,300) scale(0.8)">
    <circle cx="0" cy="0" r="200" fill="#F7931A" opacity="0.1" />
    <path d="M-100,0 C-100,-55.2 -55.2,-100 0,-100 C55.2,-100 100,-55.2 100,0 C100,55.2 55.2,100 0,100 C-55.2,100 -100,55.2 -100,0 Z" fill="#F7931A" opacity="0.2" />
    <path d="M-50,0 C-50,-27.6 -27.6,-50 0,-50 C27.6,-50 50,-27.6 50,0 C50,27.6 27.6,50 0,50 C-27.6,50 -50,27.6 -50,0 Z" fill="#F7931A" opacity="0.3" />
    <text x="0" y="0" text-anchor="middle" dominant-baseline="middle" fill="#F7931A" font-size="120" font-weight="bold">₿</text>
  </g>
  
  <!-- Decorative elements -->
  <circle cx="200" cy="150" r="50" fill="#4F46E5" opacity="0.1" />
  <circle cx="600" cy="450" r="75" fill="#7C3AED" opacity="0.1" />
  <circle cx="150" cy="450" r="30" fill="#4F46E5" opacity="0.1" />
  <circle cx="650" cy="150" r="40" fill="#7C3AED" opacity="0.1" />
</svg> 